HIERARCHY
ROOT Hips
{
	OFFSET -3.958830 18.904000 13.208200
	CHANNELS 6 Xposition Yposition Zposition Zrotation Yrotation Xrotation 
	JOINT LHipJoint
	{
		OFFSET 0.000000 0.000000 0.000000
		CHANNELS 3 Zrotation Yrotation Xrotation
		JOINT LeftUpLeg
		{
			OFFSET 1.800000 -1.400000 0.085000
			CHANNELS 3 Zrotation Yrotation Xrotation
			JOINT LeftLeg
			{
				OFFSET 2.215000 -6.000000 0.000000
				CHANNELS 3 Zrotation Yrotation Xrotation
				JOINT LeftFoot
				{
					OFFSET 2.500000 -6.900000 0.000000
					CHANNELS 3 Zrotation Yrotation Xrotation
					JOINT LeftToeBase
					{
						OFFSET 0.200000 -0.500000 1.950000
						CHANNELS 3 Zrotation Yrotation Xrotation
						End Site
						{
							OFFSET 0.000000 0.000000 0.000000
						}
					}
				}
			}
		}
	}
	JOINT RHipJoint
	{
		OFFSET 0.000000 0.000000 0.000000
		CHANNELS 3 Zrotation Yrotation Xrotation
		JOINT RightUpLeg
		{
			OFFSET -1.800000 -1.400000 0.085000
			CHANNELS 3 Zrotation Yrotation Xrotation
			JOINT RightLeg
			{
				OFFSET -2.215000 -6.000000 0.000000
				CHANNELS 3 Zrotation Yrotation Xrotation
				JOINT RightFoot
				{
					OFFSET -2.500000 -6.900000 0.000000
					CHANNELS 3 Zrotation Yrotation Xrotation
					JOINT RightToeBase
					{
						OFFSET -0.200000 -0.500000 1.950000
						CHANNELS 3 Zrotation Yrotation Xrotation
						End Site
						{
							OFFSET 0.000000 0.000000 0.000000
						}
					}
				}
			}
		}
	}
	JOINT LowerBack
	{
		OFFSET 0.000000 0.000000 0.000000
		CHANNELS 3 Zrotation Yrotation Xrotation
		JOINT Spine
		{
			OFFSET -0.087000 1.940000 -0.288900
			CHANNELS 3 Zrotation Yrotation Xrotation
			JOINT Spine1
			{
				OFFSET 0.000000 1.950000 0.060000
				CHANNELS 3 Zrotation Yrotation Xrotation
				JOINT Neck
				{
					OFFSET 0.000000 0.000000 0.000000
					CHANNELS 3 Zrotation Yrotation Xrotation
					JOINT Neck1
					{
						OFFSET 0.000000 1.600000 0.340000
						CHANNELS 3 Zrotation Yrotation Xrotation
						JOINT Head
						{
							OFFSET 0.000000 1.667000 -0.240000
							CHANNELS 3 Zrotation Yrotation Xrotation
							End Site
							{
								OFFSET 0.000000 0.000000 0.000000
							}
						}
					}
				}
				JOINT LeftShoulder
				{
					OFFSET 0.000000 0.000000 0.000000
					CHANNELS 3 Zrotation Yrotation Xrotation
					JOINT LeftArm
					{
						OFFSET 2.700000 1.550000 -0.730000
						CHANNELS 3 Zrotation Yrotation Xrotation
						JOINT LeftForeArm
						{
							OFFSET 5.450000 0.000000 0.000000
							CHANNELS 3 Zrotation Yrotation Xrotation
							JOINT LeftHand
							{
								OFFSET 3.450000 0.000000 0.000000
								CHANNELS 3 Zrotation Yrotation Xrotation
								JOINT LeftHandIndex1
								{
									OFFSET 0.750000 0.000000 0.000000
									CHANNELS 3 Zrotation Yrotation Xrotation
									End Site
									{
										OFFSET 0.000000 0.000000 0.000000
									}
								}
							}
						}
					}
				}
				JOINT RightShoulder
				{
					OFFSET 0.000000 0.000000 0.000000
					CHANNELS 3 Zrotation Yrotation Xrotation
					JOINT RightArm
					{
						OFFSET -2.700000 1.550000 -0.730000
						CHANNELS 3 Zrotation Yrotation Xrotation
						JOINT RightForeArm
						{
							OFFSET -5.450000 0.000000 0.000000
							CHANNELS 3 Zrotation Yrotation Xrotation
							JOINT RightHand
							{
								OFFSET -3.450000 0.000000 0.000000
								CHANNELS 3 Zrotation Yrotation Xrotation
								JOINT RightHandIndex1
								{
									OFFSET -0.750000 0.000000 0.000000
									CHANNELS 3 Zrotation Yrotation Xrotation
									End Site
									{
										OFFSET 0.000000 0.000000 0.000000
									}
								}
							}
						}
					}
				}
			}
		}
	}
}
MOTION
Frames: 13
Frame Time: 0.016667
-0.084200 17.354960 -0.792430 -3.064268 -2.961713 3.982136 -15.235684 13.424555 2.996427 0.848399 -0.799990 -7.906823 -7.003236 4.752130 8.419368 -1.200251 5.452573 3.475939 -0.196750 -1.116590 -0.284680 18.211922 -10.658419 2.923024 -1.990661 0.452558 -6.266459 8.553079 -5.896398 6.759253 -0.554690 -4.238006 3.026566 -0.423300 1.694360 1.080140 -3.347218 -2.287390 -7.444856 9.168635 1.323653 7.451376 -1.603687 1.612513 5.644275 2.703846 -1.481767 -11.518336 -4.005970 4.025505 30.416274 -5.260890 1.428290 -6.147370 -9.304291 -9.201686 4.236301 16.921771 6.903872 2.611699 9.439295 -4.135661 -2.116455 -4.776598 2.337579 1.263900 0.842380 -0.188850 0.596040 4.403025 10.380858 8.089546 -11.960028 -9.048878 -0.980032 -2.713443 14.353239 0.706481 1.546460 -1.114394 -0.854820 0.735750 0.667770 -0.071290 
-0.079240 17.353890 -0.802310 -3.081281 -3.164243 3.598293 -15.214989 13.522119 3.003878 1.153912 -0.911819 -8.613247 -7.407253 5.128253 10.323833 -1.207615 5.565394 3.424313 -0.201930 -1.133420 -0.277870 18.196888 -10.721192 2.897827 -2.302396 0.587168 -6.808712 8.748207 -6.143336 8.408131 -0.548747 -4.238714 3.020313 -0.432390 1.688720 1.071070 -3.347794 -2.352227 -7.475376 9.381501 1.149713 8.431014 -1.862789 1.656830 5.277138 2.718197 -1.642844 -11.707357 -4.323429 4.177390 30.539992 -5.130170 1.480130 -6.664270 -9.351899 -9.209566 4.275705 17.177174 7.506152 2.661596 9.752177 -4.051336 -2.126937 -4.768632 2.311098 1.294210 0.826420 -0.182630 0.590590 4.389468 10.566580 8.276419 -11.798217 -8.593169 -1.132157 -3.615188 13.458320 0.633523 1.560591 -1.071203 -0.870840 0.748680 0.675030 -0.083060 
-0.075610 17.351730 -0.814700 -3.102386 -3.432699 3.200779 -15.196917 13.607796 3.016684 1.540322 -1.044497 -9.372460 -7.921506 5.572446 12.303548 -1.192609 5.705921 3.360549 -0.200980 -1.135350 -0.268270 18.180317 -10.775424 2.870058 -2.724391 0.776009 -7.472874 9.194379 -6.463499 10.267086 -0.545446 -4.271217 3.006819 -0.437190 1.676810 1.056350 -3.341711 -2.412137 -7.506547 9.538851 1.017020 9.458738 -2.044006 1.738055 4.911076 2.729951 -1.829906 -11.864817 -4.672849 4.297566 30.561742 -5.016250 1.538920 -7.124360 -9.438866 -9.201205 4.300935 17.358780 8.034036 2.689244 10.028344 -3.969879 -2.118210 -4.753728 2.291210 1.311600 0.809830 -0.176210 0.586620 4.433873 10.781094 8.429139 -11.784268 -8.337863 -1.241806 -4.435013 12.867740 0.577390 1.576775 -1.042126 -0.878020 0.757620 0.671470 -0.090350 
-0.072520 17.343380 -0.828240 -3.149384 -3.576460 2.919875 -15.183008 13.663259 3.027514 2.014110 -1.211792 -10.258496 -8.511255 6.054841 14.244872 -1.162378 5.878839 3.286042 -0.203500 -1.134530 -0.268570 18.167712 -10.812138 2.839853 -3.172247 1.021689 -8.285654 9.771120 -6.825908 12.182606 -0.543456 -4.341114 2.975451 -0.439300 1.675420 1.047910 -3.338680 -2.451236 -7.519979 9.628745 0.885883 10.274751 -2.105299 1.761969 4.692741 2.696745 -1.969648 -11.941450 -4.872587 4.394140 30.202514 -4.864350 1.579280 -7.297640 -9.531850 -9.204153 4.329879 17.523657 8.520712 2.727263 10.192650 -3.925402 -2.104693 -4.745813 2.290104 1.310960 0.804070 -0.176050 0.585880 4.582438 10.931646 8.491743 -11.937944 -8.208239 -1.310514 -5.266165 12.496368 0.514394 1.591950 -1.034027 -0.879350 0.761360 0.668510 -0.088260 
-0.068360 17.328250 -0.841440 -3.227313 -3.681954 2.751762 -15.169063 13.685703 3.040223 2.534586 -1.418731 -11.263965 -9.164266 6.585664 16.190911 -1.129084 6.093517 3.195511 -0.215080 -1.145420 -0.277900 18.163019 -10.828069 2.813945 -3.669617 1.335531 -9.246932 10.577682 -7.272039 14.157043 -0.545192 -4.453000 2.926949 -0.444880 1.681450 1.039270 -3.349908 -2.469184 -7.525514 9.779786 0.775836 10.837766 -2.111880 1.770128 4.642425 2.624399 -2.132541 -12.013096 -5.104743 4.478050 29.748890 -4.607170 1.535890 -7.351190 -9.613438 -9.287520 4.415947 17.595070 9.017720 2.774541 10.190574 -3.940424 -2.096985 -4.740660 2.290817 1.309980 0.801300 -0.181820 0.583610 4.801127 11.138072 8.536886 -12.325780 -8.124835 -1.362439 -5.885216 11.929196 0.464846 1.607244 -1.023570 -0.885830 0.767470 0.674390 -0.085740 
-0.065010 17.308000 -0.853940 -3.281692 -3.709628 2.649606 -15.160908 13.675848 3.058426 3.045885 -1.656695 -12.298587 -9.835116 7.135316 18.065976 -1.086679 6.329007 3.091424 -0.217710 -1.150880 -0.279600 18.160079 -10.822320 2.795916 -4.277187 1.693150 -10.262347 11.601471 -7.805326 16.080872 -0.564461 -4.610278 2.854710 -0.451700 1.676540 1.041700 -3.358606 -2.468657 -7.534621 9.834989 0.704062 11.218207 -2.079373 1.768942 4.702064 2.573842 -2.161386 -12.032550 -5.104531 4.485321 29.374947 -4.363760 1.495390 -7.564590 -9.781036 -9.498156 4.526746 17.822326 9.497009 2.823259 10.133924 -3.935926 -2.094655 -4.729994 2.308723 1.312370 0.793470 -0.179320 0.580600 5.056270 11.356924 8.497926 -13.075466 -8.100806 -1.339182 -5.698410 11.294968 0.469926 1.621122 -1.021015 -0.881470 0.760350 0.677640 -0.085460 
-0.062120 17.283210 -0.865330 -3.308653 -3.724082 2.661062 -15.154074 13.631729 3.088245 3.572605 -1.932933 -13.422376 -10.625864 7.752266 19.914514 -1.039634 6.600805 2.969744 -0.220280 -1.156920 -0.283670 18.163316 -10.794524 2.784475 -4.977009 2.097159 -11.400103 12.727584 -8.407991 17.995227 -0.589148 -4.801863 2.774911 -0.457820 1.666890 1.039760 -3.376422 -2.452046 -7.548637 9.849010 0.664219 11.362379 -2.049250 1.766644 4.838222 2.466835 -2.148310 -12.042651 -5.064277 4.480207 29.146835 -3.963320 1.392840 -7.846740 -10.030251 -9.759169 4.631362 18.097365 9.872960 2.857650 10.103638 -3.869451 -2.095703 -4.720095 2.322060 1.317020 0.784010 -0.179380 0.573920 5.501824 11.536101 8.487123 -13.564331 -8.002103 -1.413283 -6.250340 10.536032 0.436735 1.633897 -1.012325 -0.877660 0.753440 0.684380 -0.090170 
-0.059290 17.254180 -0.875750 -3.276658 -3.749840 2.778791 -15.153152 13.558902 3.130813 4.049378 -2.229854 -14.571229 -11.493957 8.397231 21.608281 -0.991063 6.903136 2.848982 -0.230230 -1.171460 -0.293160 18.168054 -10.744719 2.780088 -5.756676 2.521995 -12.618041 13.867727 -9.051918 19.818322 -0.618425 -5.027359 2.684840 -0.466300 1.677300 1.038780 -3.389384 -2.427270 -7.569078 9.798761 0.667923 11.385914 -2.018749 1.790679 4.861300 2.378724 -2.145789 -11.959449 -5.010783 4.458312 28.757816 -3.675950 1.283770 -7.961890 -10.463204 -10.066736 4.688432 18.541577 10.261166 2.921049 10.029146 -3.936433 -2.099934 -4.712670 2.333048 1.322640 0.784480 -0.184920 0.573690 6.095358 11.791619 8.372976 -14.543794 -8.057268 -1.401133 -6.028000 9.897339 0.437364 1.639199 -1.007666 -0.884350 0.758120 0.693120 -0.089280 
-0.057910 17.216770 -0.881240 -3.143421 -3.741949 3.196806 -15.161564 13.417422 3.173731 4.495419 -2.564897 -15.879264 -12.561116 9.105621 23.119863 -0.940713 7.234867 2.722101 -0.236550 -1.176340 -0.307590 18.182351 -10.664023 2.775783 -6.684733 2.980121 -14.108425 15.150707 -9.771593 21.582428 -0.646996 -5.305239 2.578556 -0.460150 1.701340 1.039060 -3.407192 -2.344511 -7.551114 9.503376 0.790268 10.723854 -1.846938 1.781993 5.309472 2.223266 -2.048919 -11.714563 -4.693594 4.396635 27.821175 -3.528070 1.190340 -7.815020 -10.793243 -10.252230 4.697484 18.864150 10.435053 2.994711 9.925676 -4.008713 -2.107624 -4.721225 2.356937 1.307920 0.803670 -0.204690 0.578560 6.733264 11.791485 8.122969 -15.402317 -8.046721 -1.369119 -6.128183 9.475448 0.389569 1.630921 -1.026574 -0.892720 0.765620 0.700920 -0.085290 
-0.056210 17.178120 -0.885560 -3.023310 -3.668733 3.596724 -15.171175 13.267084 3.227630 4.971495 -2.891504 -17.118445 -13.650504 9.820103 24.460265 -0.880879 7.557724 2.592394 -0.235310 -1.166880 -0.317560 18.198654 -10.569410 2.782172 -7.576201 3.375447 -15.461995 16.345180 -10.469999 23.096390 -0.684139 -5.577586 2.472070 -0.449230 1.707450 1.037580 -3.427388 -2.272740 -7.549984 9.289746 0.852212 10.133877 -1.796709 1.751834 5.676592 2.108783 -1.916216 -11.486924 -4.344031 4.325880 27.046669 -3.430240 1.154590 -7.874470 -11.140772 -10.401490 4.668421 19.179191 10.594174 3.059008 9.810710 -4.204562 -2.101364 -4.717451 2.389663 1.292110 0.813020 -0.214980 0.581430 7.296241 11.727672 7.912482 -15.953410 -8.073992 -1.348876 -6.457641 9.281781 0.344873 1.625260 -1.048432 -0.891970 0.765110 0.702360 -0.082300 
-0.050790 17.134510 -0.888840 -2.880632 -3.589000 4.019729 -15.176902 13.100095 3.283657 5.375678 -3.231391 -18.325308 -14.653875 10.527726 25.772252 -0.804148 7.881851 2.470571 -0.234770 -1.157480 -0.324130 18.221946 -10.460153 2.807999 -8.657766 3.753451 -16.831859 17.755611 -11.273787 24.499466 -0.734762 -5.894082 2.344662 -0.444440 1.720240 1.043730 -3.464931 -2.193044 -7.560613 9.233572 0.850365 9.542435 -1.957707 1.707535 5.995786 2.014518 -1.799816 -11.333889 -4.029376 4.218663 26.290051 -3.283060 1.040410 -7.749910 -11.377308 -10.514563 4.653268 19.378147 10.778505 3.118431 9.547561 -4.459050 -2.090078 -4.712678 2.424789 1.270300 0.824100 -0.221570 0.585900 7.696203 11.634293 7.795507 -16.148129 -7.975967 -1.356612 -6.961052 8.971207 0.284827 1.635264 -1.068545 -0.883660 0.761230 0.699180 -0.069750 
-0.044450 17.090430 -0.893200 -2.777603 -3.458125 4.344496 -15.186572 12.941295 3.352708 5.886182 -3.566789 -19.487410 -15.651190 11.276389 27.102488 -0.724005 8.234125 2.340158 -0.227500 -1.147030 -0.330390 18.240528 -10.335081 2.846358 -9.720848 4.086296 -18.048504 19.176625 -12.116456 25.773950 -0.794123 -6.224452 2.224187 -0.439320 1.729060 1.050890 -3.489690 -2.154324 -7.601434 9.246209 0.788856 9.212836 -2.111813 1.649227 6.203265 1.955425 -1.762964 -11.302859 -3.885705 4.134397 25.705384 -3.120910 0.892790 -7.641020 -11.512358 -10.542098 4.674981 19.164814 10.886863 3.144160 9.317449 -4.671188 -2.082664 -4.708498 2.450956 1.256570 0.833220 -0.227310 0.595620 7.937097 11.543539 7.801834 -15.957905 -7.957480 -1.422080 -8.008879 8.787706 0.219763 1.639246 -1.086700 -0.875290 0.755860 0.693630 -0.061780 
-0.041770 17.042760 -0.897860 -2.591590 -3.317161 4.680732 -15.212272 12.769930 3.432237 6.391476 -3.907536 -20.653242 -16.752902 12.095633 28.388139 -0.634641 8.613206 2.201723 -0.222640 -1.130780 -0.334680 18.249544 -10.188985 2.886104 -10.811694 4.373869 -19.244158 20.574408 -12.975912 26.960431 -0.856364 -6.561582 2.096827 -0.428000 1.737950 1.057150 -3.477212 -2.133986 -7.643017 8.917267 0.813995 8.849960 -2.020663 1.603398 6.486173 1.907369 -1.640245 -11.216902 -3.573646 4.046429 25.024645 -3.178240 0.873810 -7.604090 -11.595626 -10.508155 4.691340 18.843137 10.853598 3.147189 9.273715 -4.783774 -2.075790 -4.715541 2.471076 1.234510 0.845950 -0.231510 0.601300 8.131032 11.377078 7.714100 -15.959605 -7.889519 -1.434507 -8.707105 8.565033 0.157511 1.643933 -1.106215 -0.866900 0.754160 0.688950 -0.052230 
